<svg width="80" height="112" viewBox="0 0 80 112" fill="none" xmlns="http://www.w3.org/2000/svg">
  <!-- Glass outline - wider at top, narrower at bottom -->
  <path d="M12 0 L68 0 L80 112 L0 112 Z" stroke="#94A3B8" stroke-width="2" fill="none" opacity="0.4"/>
  
  <!-- Glass body with subtle transparency -->
  <path d="M12 0 L68 0 L80 112 L0 112 Z" fill="url(#glassGradient)" opacity="0.05"/>
  
  <!-- Glass rim highlight -->
  <path d="M12 0 L68 0" stroke="white" stroke-width="1" opacity="0.3"/>
  
  <!-- Glass side reflection -->
  <rect x="64" y="8" width="2" height="80" fill="white" opacity="0.2" rx="1"/>
  
  <!-- Glass base shadow -->
  <ellipse cx="40" cy="110" rx="35" ry="2" fill="#475569" opacity="0.2"/>
  
  <!-- Subtle inner lines for glass curvature -->
  <path d="M16 8 L64 8" stroke="#94A3B8" stroke-width="0.5" opacity="0.3"/>
  <path d="M18 16 L62 16" stroke="#94A3B8" stroke-width="0.5" opacity="0.2"/>
  <path d="M20 24 L60 24" stroke="#94A3B8" stroke-width="0.5" opacity="0.2"/>
  <path d="M22 32 L58 32" stroke="#94A3B8" stroke-width="0.5" opacity="0.2"/>
  <path d="M24 40 L56 40" stroke="#94A3B8" stroke-width="0.5" opacity="0.2"/>
  <path d="M26 48 L54 48" stroke="#94A3B8" stroke-width="0.5" opacity="0.2"/>
  <path d="M28 56 L52 56" stroke="#94A3B8" stroke-width="0.5" opacity="0.2"/>
  <path d="M30 64 L50 64" stroke="#94A3B8" stroke-width="0.5" opacity="0.2"/>
  <path d="M32 72 L48 72" stroke="#94A3B8" stroke-width="0.5" opacity="0.2"/>
  <path d="M34 80 L46 80" stroke="#94A3B8" stroke-width="0.5" opacity="0.2"/>
  <path d="M36 88 L44 88" stroke="#94A3B8" stroke-width="0.5" opacity="0.2"/>
  
  <!-- Gradients -->
  <defs>
    <linearGradient id="glassGradient" x1="0%" y1="0%" x2="100%" y2="100%">
      <stop offset="0%" style="stop-color:#94A3B8;stop-opacity:0.1"/>
      <stop offset="100%" style="stop-color:#64748B;stop-opacity:0.05"/>
    </linearGradient>
  </defs>
</svg>
